# xmcd CD database file
#
# Track frame offsets:
#	150
#	17038
#	31096
#	48394
#	59995
#	75123
#	90721
#	102269
#	115278
#	127725
#	138383
#	152522
#	163099
#	177279
#	190291
#
# Disc length: 2737 seconds
#
# Revision: 0
# Processed by: cddbd v1.5.2PL0 Copyright (c) Steve Scherf et al.
# Submitted via: CDex 1.70beta2
#
DISCID=bb0aaf0f
DTITLE=Kenny Rogers - Originals
DYEAR=1900
DGENRE=Country
TTITLE0=Lady
TTITLE1=You are So Beautiful
TTITLE2=I Swear
TTITLE3=A Poem For My Little Lady
TTITLE4=For The Good Times
TTITLE5=My Washington Woman
TTITLE6=Me And Bobby McGee
TTITLE7=Ruby, Don't Take Your Love To Town
TTITLE8=Reuben James
TTITLE9=Trying Just As Hard
TTITLE10=Sunshine
TTITLE11=Ticket To Nowhere
TTITLE12=Loser
TTITLE13=Sleep Comes Easy
TTITLE14=Just Dropped In (To See What Condition My Condition Was In)
EXTD=
EXTT0=
EXTT1=
EXTT2=
EXTT3=
EXTT4=
EXTT5=
EXTT6=
EXTT7=
EXTT8=
EXTT9=
EXTT10=
EXTT11=
EXTT12=
EXTT13=
EXTT14=
PLAYORDER=
